<?xml version="1.0" encoding="UTF-8"?>
<!--Generator: Apple Native CoreSVG 123-->
<!DOCTYPE svg
PUBLIC "-//W3C//DTD SVG 1.1//EN"
       "http://www.w3.org/Graphics/SVG/1.1/DTD/svg11.dtd">
<svg version="1.1" xmlns="http://www.w3.org/2000/svg" xmlns:xlink="http://www.w3.org/1999/xlink" width="3300" height="2200">
 <!--glyph: "uni1001C3.medium", point size: 100.000000, font version: "Version 15.0d7e11", template writer version: "5"-->
 <g id="Notes">
  <rect height="2200" id="artboard" style="fill:white;opacity:1" width="3300" x="0" y="0"/>
  <line id="" style="fill:none;stroke:black;opacity:1;stroke-width:0.5;" x1="263" x2="3036" y1="292" y2="292"/>
  <text style="stroke:none;fill:black;font-family:-apple-system,&quot;SF Pro Display&quot;,&quot;SF Pro Text&quot;,Helvetica,sans-serif;font-weight:bold;" transform="matrix(1 0 0 1 263 322)">Weight/Scale Variations</text>
  <text style="stroke:none;fill:black;font-family:-apple-system,&quot;SF Pro Display&quot;,&quot;SF Pro Text&quot;,Helvetica,sans-serif;text-anchor:middle;" transform="matrix(1 0 0 1 559.711 322)">Ultralight</text>
  <text style="stroke:none;fill:black;font-family:-apple-system,&quot;SF Pro Display&quot;,&quot;SF Pro Text&quot;,Helvetica,sans-serif;text-anchor:middle;" transform="matrix(1 0 0 1 856.422 322)">Thin</text>
  <text style="stroke:none;fill:black;font-family:-apple-system,&quot;SF Pro Display&quot;,&quot;SF Pro Text&quot;,Helvetica,sans-serif;text-anchor:middle;" transform="matrix(1 0 0 1 1153.13 322)">Light</text>
  <text style="stroke:none;fill:black;font-family:-apple-system,&quot;SF Pro Display&quot;,&quot;SF Pro Text&quot;,Helvetica,sans-serif;text-anchor:middle;" transform="matrix(1 0 0 1 1449.84 322)">Regular</text>
  <text style="stroke:none;fill:black;font-family:-apple-system,&quot;SF Pro Display&quot;,&quot;SF Pro Text&quot;,Helvetica,sans-serif;text-anchor:middle;" transform="matrix(1 0 0 1 1746.56 322)">Medium</text>
  <text style="stroke:none;fill:black;font-family:-apple-system,&quot;SF Pro Display&quot;,&quot;SF Pro Text&quot;,Helvetica,sans-serif;text-anchor:middle;" transform="matrix(1 0 0 1 2043.27 322)">Semibold</text>
  <text style="stroke:none;fill:black;font-family:-apple-system,&quot;SF Pro Display&quot;,&quot;SF Pro Text&quot;,Helvetica,sans-serif;text-anchor:middle;" transform="matrix(1 0 0 1 2339.98 322)">Bold</text>
  <text style="stroke:none;fill:black;font-family:-apple-system,&quot;SF Pro Display&quot;,&quot;SF Pro Text&quot;,Helvetica,sans-serif;text-anchor:middle;" transform="matrix(1 0 0 1 2636.69 322)">Heavy</text>
  <text style="stroke:none;fill:black;font-family:-apple-system,&quot;SF Pro Display&quot;,&quot;SF Pro Text&quot;,Helvetica,sans-serif;text-anchor:middle;" transform="matrix(1 0 0 1 2933.4 322)">Black</text>
  <line id="" style="fill:none;stroke:black;opacity:1;stroke-width:0.5;" x1="263" x2="3036" y1="1903" y2="1903"/>
  <g id="" transform="matrix(1 0 0 1 263 1933)">
   <path d="M 9.24805 0.830078 C 13.5547 0.830078 17.1387 -2.74414 17.1387 -7.05078 C 17.1387 -11.3574 13.5449 -14.9316 9.23828 -14.9316 C 4.94141 -14.9316 1.36719 -11.3574 1.36719 -7.05078 C 1.36719 -2.74414 4.95117 0.830078 9.24805 0.830078 Z M 9.24805 -0.654297 C 5.70312 -0.654297 2.87109 -3.49609 2.87109 -7.05078 C 2.87109 -10.6055 5.69336 -13.4473 9.23828 -13.4473 C 12.793 -13.4473 15.6348 -10.6055 15.6445 -7.05078 C 15.6543 -3.49609 12.8027 -0.654297 9.24805 -0.654297 Z M 9.22852 -3.42773 C 9.69727 -3.42773 9.9707 -3.74023 9.9707 -4.25781 L 9.9707 -6.31836 L 12.1973 -6.31836 C 12.6953 -6.31836 13.0371 -6.57227 13.0371 -7.04102 C 13.0371 -7.51953 12.7148 -7.7832 12.1973 -7.7832 L 9.9707 -7.7832 L 9.9707 -10.0098 C 9.9707 -10.5273 9.69727 -10.8496 9.22852 -10.8496 C 8.75977 -10.8496 8.50586 -10.5078 8.50586 -10.0098 L 8.50586 -7.7832 L 6.29883 -7.7832 C 5.78125 -7.7832 5.44922 -7.51953 5.44922 -7.04102 C 5.44922 -6.57227 5.80078 -6.31836 6.29883 -6.31836 L 8.50586 -6.31836 L 8.50586 -4.25781 C 8.50586 -3.75977 8.75977 -3.42773 9.22852 -3.42773 Z"/>
  </g>
  <g id="" transform="matrix(1 0 0 1 281.506 1933)">
   <path d="M 11.709 2.91016 C 17.1582 2.91016 21.6699 -1.60156 21.6699 -7.05078 C 21.6699 -12.4902 17.1484 -17.0117 11.6992 -17.0117 C 6.25977 -17.0117 1.74805 -12.4902 1.74805 -7.05078 C 1.74805 -1.60156 6.26953 2.91016 11.709 2.91016 Z M 11.709 1.25 C 7.09961 1.25 3.41797 -2.44141 3.41797 -7.05078 C 3.41797 -11.6504 7.08984 -15.3516 11.6992 -15.3516 C 16.3086 -15.3516 20 -11.6504 20.0098 -7.05078 C 20.0195 -2.44141 16.3184 1.25 11.709 1.25 Z M 11.6895 -2.41211 C 12.207 -2.41211 12.5195 -2.77344 12.5195 -3.33984 L 12.5195 -6.23047 L 15.5762 -6.23047 C 16.123 -6.23047 16.5039 -6.51367 16.5039 -7.03125 C 16.5039 -7.55859 16.1426 -7.86133 15.5762 -7.86133 L 12.5195 -7.86133 L 12.5195 -10.9277 C 12.5195 -11.5039 12.207 -11.8555 11.6895 -11.8555 C 11.1719 -11.8555 10.8789 -11.4844 10.8789 -10.9277 L 10.8789 -7.86133 L 7.83203 -7.86133 C 7.26562 -7.86133 6.89453 -7.55859 6.89453 -7.03125 C 6.89453 -6.51367 7.28516 -6.23047 7.83203 -6.23047 L 10.8789 -6.23047 L 10.8789 -3.33984 C 10.8789 -2.79297 11.1719 -2.41211 11.6895 -2.41211 Z"/>
  </g>
  <g id="" transform="matrix(1 0 0 1 304.924 1933)">
   <path d="M 14.9707 5.67383 C 21.9336 5.67383 27.6953 -0.078125 27.6953 -7.04102 C 27.6953 -14.0039 21.9238 -19.7559 14.9609 -19.7559 C 8.00781 -19.7559 2.25586 -14.0039 2.25586 -7.04102 C 2.25586 -0.078125 8.01758 5.67383 14.9707 5.67383 Z M 14.9707 3.85742 C 8.93555 3.85742 4.08203 -1.00586 4.08203 -7.04102 C 4.08203 -13.0762 8.92578 -17.9395 14.9609 -17.9395 C 21.0059 -17.9395 25.8594 -13.0762 25.8691 -7.04102 C 25.8789 -1.00586 21.0156 3.85742 14.9707 3.85742 Z M 14.9512 -1.06445 C 15.5176 -1.06445 15.8691 -1.45508 15.8691 -2.06055 L 15.8691 -6.13281 L 20.1074 -6.13281 C 20.6934 -6.13281 21.1133 -6.46484 21.1133 -7.02148 C 21.1133 -7.59766 20.7227 -7.93945 20.1074 -7.93945 L 15.8691 -7.93945 L 15.8691 -12.1875 C 15.8691 -12.8027 15.5176 -13.1934 14.9512 -13.1934 C 14.3848 -13.1934 14.0625 -12.7832 14.0625 -12.1875 L 14.0625 -7.93945 L 9.83398 -7.93945 C 9.21875 -7.93945 8.80859 -7.59766 8.80859 -7.02148 C 8.80859 -6.46484 9.23828 -6.13281 9.83398 -6.13281 L 14.0625 -6.13281 L 14.0625 -2.06055 C 14.0625 -1.47461 14.3848 -1.06445 14.9512 -1.06445 Z"/>
  </g>
  <text style="stroke:none;fill:black;font-family:-apple-system,&quot;SF Pro Display&quot;,&quot;SF Pro Text&quot;,Helvetica,sans-serif;font-weight:bold;" transform="matrix(1 0 0 1 263 1953)">Design Variations</text>
  <text style="stroke:none;fill:black;font-family:-apple-system,&quot;SF Pro Display&quot;,&quot;SF Pro Text&quot;,Helvetica,sans-serif;" transform="matrix(1 0 0 1 263 1971)">Symbols are supported in up to nine weights and three scales.</text>
  <text style="stroke:none;fill:black;font-family:-apple-system,&quot;SF Pro Display&quot;,&quot;SF Pro Text&quot;,Helvetica,sans-serif;" transform="matrix(1 0 0 1 263 1989)">For optimal layout with text and other symbols, vertically align</text>
  <text style="stroke:none;fill:black;font-family:-apple-system,&quot;SF Pro Display&quot;,&quot;SF Pro Text&quot;,Helvetica,sans-serif;" transform="matrix(1 0 0 1 263 2007)">symbols with the adjacent text.</text>
  <rect height="14" id="" style="fill:#00AEEF;stroke:none;opacity:0.4;" width="3" x="776" y="1919"/>
  <g id="" transform="matrix(1 0 0 1 779 1933)">
   <path d="M 10.5273 0 L 12.373 0 L 7.17773 -14.0918 L 5.43945 -14.0918 L 0.244141 0 L 2.08984 0 L 3.50586 -4.0332 L 9.11133 -4.0332 Z M 6.2793 -11.9531 L 6.33789 -11.9531 L 8.59375 -5.52734 L 4.02344 -5.52734 Z"/>
  </g>
  <rect height="14" id="" style="fill:#00AEEF;stroke:none;opacity:0.4;" width="3" x="791.617" y="1919"/>
  <text style="stroke:none;fill:black;font-family:-apple-system,&quot;SF Pro Display&quot;,&quot;SF Pro Text&quot;,Helvetica,sans-serif;font-weight:bold;" transform="matrix(1 0 0 1 776 1953)">Margins</text>
  <text style="stroke:none;fill:black;font-family:-apple-system,&quot;SF Pro Display&quot;,&quot;SF Pro Text&quot;,Helvetica,sans-serif;" transform="matrix(1 0 0 1 776 1971)">Leading and trailing margins on the left and right side of each symbol</text>
  <text style="stroke:none;fill:black;font-family:-apple-system,&quot;SF Pro Display&quot;,&quot;SF Pro Text&quot;,Helvetica,sans-serif;" transform="matrix(1 0 0 1 776 1989)">can be adjusted by modifying the width of the blue rectangles.</text>
  <text style="stroke:none;fill:black;font-family:-apple-system,&quot;SF Pro Display&quot;,&quot;SF Pro Text&quot;,Helvetica,sans-serif;" transform="matrix(1 0 0 1 776 2007)">Modifications are automatically applied proportionally to all</text>
  <text style="stroke:none;fill:black;font-family:-apple-system,&quot;SF Pro Display&quot;,&quot;SF Pro Text&quot;,Helvetica,sans-serif;" transform="matrix(1 0 0 1 776 2025)">scales and weights.</text>
  <g id="" transform="matrix(1 0 0 1 1289 1933)">
   <path d="M 2.83203 3.11523 L 4.375 4.6582 C 5.22461 5.48828 6.19141 5.41992 7.06055 4.46289 L 17.2754 -6.66016 C 17.7051 -6.36719 18.0957 -6.37695 18.5645 -6.47461 L 19.6094 -6.68945 L 20.3027 -5.99609 L 20.2539 -5.47852 C 20.1855 -4.95117 20.3516 -4.53125 20.8496 -4.0332 L 21.6602 -3.22266 C 22.168 -2.71484 22.8223 -2.68555 23.3008 -3.16406 L 26.5527 -6.41602 C 27.0312 -6.89453 27.0117 -7.54883 26.5039 -8.05664 L 25.6836 -8.87695 C 25.1855 -9.375 24.7754 -9.55078 24.2383 -9.47266 L 23.7109 -9.41406 L 23.0566 -10.0781 L 23.3398 -11.2207 C 23.4863 -11.7871 23.3398 -12.2559 22.7148 -12.8613 L 20.3027 -15.2539 C 16.7578 -18.7793 12.2266 -18.6719 9.11133 -15.5371 C 8.69141 -15.1074 8.64258 -14.5215 8.91602 -14.0918 C 9.15039 -13.7207 9.62891 -13.4961 10.2734 -13.6621 C 11.7871 -14.043 13.3008 -13.9258 14.7852 -12.9199 L 14.1602 -11.3379 C 13.9258 -10.752 13.9453 -10.2734 14.1797 -9.83398 L 3.01758 0.439453 C 2.08008 1.30859 1.97266 2.25586 2.83203 3.11523 Z M 10.6738 -15.1465 C 13.3398 -17.1387 16.6504 -16.8262 19.0527 -14.4141 L 21.6797 -11.8066 C 21.9141 -11.5723 21.9434 -11.3867 21.8848 -11.0938 L 21.5039 -9.53125 L 23.0762 -7.95898 L 24.043 -8.04688 C 24.3262 -8.07617 24.4141 -8.05664 24.6387 -7.83203 L 25.2637 -7.20703 L 22.5098 -4.46289 L 21.8848 -5.07812 C 21.6602 -5.30273 21.6406 -5.40039 21.6699 -5.68359 L 21.7578 -6.64062 L 20.1953 -8.20312 L 18.5742 -7.89062 C 18.291 -7.83203 18.1445 -7.83203 17.9102 -8.07617 L 15.7324 -10.2539 C 15.5078 -10.4883 15.4785 -10.625 15.6055 -10.9473 L 16.5527 -13.2227 C 14.9512 -14.7559 12.8418 -15.6055 10.8008 -14.9512 C 10.7129 -14.9219 10.6445 -14.9414 10.6152 -14.9805 C 10.5859 -15.0293 10.5859 -15.0781 10.6738 -15.1465 Z M 4.10156 2.41211 C 3.61328 1.91406 3.78906 1.61133 4.12109 1.30859 L 15.0781 -8.80859 L 16.3086 -7.57812 L 6.15234 3.34961 C 5.84961 3.68164 5.46875 3.7793 5.06836 3.37891 Z"/>
  </g>
  <text style="stroke:none;fill:black;font-family:-apple-system,&quot;SF Pro Display&quot;,&quot;SF Pro Text&quot;,Helvetica,sans-serif;font-weight:bold;" transform="matrix(1 0 0 1 1289 1953)">Exporting</text>
  <text style="stroke:none;fill:black;font-family:-apple-system,&quot;SF Pro Display&quot;,&quot;SF Pro Text&quot;,Helvetica,sans-serif;" transform="matrix(1 0 0 1 1289 1971)">Symbols should be outlined when exporting to ensure the</text>
  <text style="stroke:none;fill:black;font-family:-apple-system,&quot;SF Pro Display&quot;,&quot;SF Pro Text&quot;,Helvetica,sans-serif;" transform="matrix(1 0 0 1 1289 1989)">design is preserved when submitting to Xcode.</text>
  <text id="template-version" style="stroke:none;fill:black;font-family:-apple-system,&quot;SF Pro Display&quot;,&quot;SF Pro Text&quot;,Helvetica,sans-serif;text-anchor:end;" transform="matrix(1 0 0 1 3036 1933)">Template v.1.0</text>
  <text style="stroke:none;fill:black;font-family:-apple-system,&quot;SF Pro Display&quot;,&quot;SF Pro Text&quot;,Helvetica,sans-serif;text-anchor:end;" transform="matrix(1 0 0 1 3036 1951)">Generated from cloud.fill</text>
  <text style="stroke:none;fill:black;font-family:-apple-system,&quot;SF Pro Display&quot;,&quot;SF Pro Text&quot;,Helvetica,sans-serif;text-anchor:end;" transform="matrix(1 0 0 1 3036 1969)">Typeset at 100 points</text>
  <text style="stroke:none;fill:black;font-family:-apple-system,&quot;SF Pro Display&quot;,&quot;SF Pro Text&quot;,Helvetica,sans-serif;" transform="matrix(1 0 0 1 263 726)">Small</text>
  <text style="stroke:none;fill:black;font-family:-apple-system,&quot;SF Pro Display&quot;,&quot;SF Pro Text&quot;,Helvetica,sans-serif;" transform="matrix(1 0 0 1 263 1156)">Medium</text>
  <text style="stroke:none;fill:black;font-family:-apple-system,&quot;SF Pro Display&quot;,&quot;SF Pro Text&quot;,Helvetica,sans-serif;" transform="matrix(1 0 0 1 263 1586)">Large</text>
 </g>
 <g id="Guides">
  <g id="H-reference" style="fill:#27AAE1;stroke:none;" transform="matrix(1 0 0 1 339 696)">
   <path d="M 54.9316 0 L 57.666 0 L 30.5664 -70.459 L 28.0762 -70.459 L 0.976562 0 L 3.66211 0 L 12.9395 -24.4629 L 45.7031 -24.4629 Z M 29.1992 -67.0898 L 29.4434 -67.0898 L 44.8242 -26.709 L 13.8184 -26.709 Z"/>
  </g>
  <line id="Baseline-S" style="fill:none;stroke:#27AAE1;opacity:1;stroke-width:0.577;" x1="263" x2="3036" y1="696" y2="696"/>
  <line id="Capline-S" style="fill:none;stroke:#27AAE1;opacity:1;stroke-width:0.577;" x1="263" x2="3036" y1="625.541" y2="625.541"/>
  <g id="H-reference" style="fill:#27AAE1;stroke:none;" transform="matrix(1 0 0 1 339 1126)">
   <path d="M 54.9316 0 L 57.666 0 L 30.5664 -70.459 L 28.0762 -70.459 L 0.976562 0 L 3.66211 0 L 12.9395 -24.4629 L 45.7031 -24.4629 Z M 29.1992 -67.0898 L 29.4434 -67.0898 L 44.8242 -26.709 L 13.8184 -26.709 Z"/>
  </g>
  <line id="Baseline-M" style="fill:none;stroke:#27AAE1;opacity:1;stroke-width:0.577;" x1="263" x2="3036" y1="1126" y2="1126"/>
  <line id="Capline-M" style="fill:none;stroke:#27AAE1;opacity:1;stroke-width:0.577;" x1="263" x2="3036" y1="1055.54" y2="1055.54"/>
  <g id="H-reference" style="fill:#27AAE1;stroke:none;" transform="matrix(1 0 0 1 339 1556)">
   <path d="M 54.9316 0 L 57.666 0 L 30.5664 -70.459 L 28.0762 -70.459 L 0.976562 0 L 3.66211 0 L 12.9395 -24.4629 L 45.7031 -24.4629 Z M 29.1992 -67.0898 L 29.4434 -67.0898 L 44.8242 -26.709 L 13.8184 -26.709 Z"/>
  </g>
  <line id="Baseline-L" style="fill:none;stroke:#27AAE1;opacity:1;stroke-width:0.577;" x1="263" x2="3036" y1="1556" y2="1556"/>
  <line id="Capline-L" style="fill:none;stroke:#27AAE1;opacity:1;stroke-width:0.577;" x1="263" x2="3036" y1="1485.54" y2="1485.54"/>
  <rect height="119.336" id="left-margin" style="fill:#00AEEF;stroke:none;opacity:0.4;" width="8.74023" x="1385.86" y="1030.79"/>
  <rect height="119.336" id="right-margin" style="fill:#00AEEF;stroke:none;opacity:0.4;" width="8.74023" x="1505.09" y="1030.79"/>
 </g>
 <g id="Symbols">
  <g id="Black-L" transform="matrix(1 0 0 1 2846.24 1556)">
   <path d="M 44.4824 16.5527 L 123.926 16.5527 C 146.045 16.5527 163.037 -0.244141 163.037 -21.9238 C 163.037 -43.9941 145.898 -60.791 123.486 -60.5957 C 115.039 -77.002 100.195 -85.791 80.9082 -85.791 C 56.1523 -85.791 35.8398 -68.1152 32.5195 -43.75 C 20.0684 -39.5508 11.2793 -28.8086 11.2793 -14.6973 C 11.2793 3.51562 25.0488 16.5527 44.4824 16.5527 Z"/>
  </g>
  <g id="Heavy-L" transform="matrix(1 0 0 1 2550.68 1556)">
   <path d="M 43.3594 15.4297 L 122.559 15.4297 C 144.141 15.4297 160.742 -0.878906 160.742 -21.9727 C 160.742 -43.3594 143.848 -59.5703 121.729 -59.4238 C 113.379 -75.8301 98.584 -84.7656 79.6875 -84.7656 C 55.3711 -84.7656 35.2539 -66.9434 32.3242 -42.7734 C 19.873 -38.7695 11.2793 -28.1738 11.2793 -14.502 C 11.2793 3.02734 24.5117 15.4297 43.3594 15.4297 Z"/>
  </g>
  <g id="Bold-L" transform="matrix(1 0 0 1 2255.29 1556)">
   <path d="M 42.0898 14.209 L 121.045 14.209 C 141.992 14.209 158.105 -1.5625 158.105 -21.9727 C 158.105 -42.627 141.553 -58.252 119.775 -58.1055 C 111.523 -74.5605 96.7773 -83.6426 78.3691 -83.6426 C 54.4922 -83.6426 34.668 -65.625 32.0801 -41.6992 C 19.6777 -37.9395 11.2793 -27.4902 11.2793 -14.2578 C 11.2793 2.44141 23.9258 14.209 42.0898 14.209 Z"/>
  </g>
  <g id="Semibold-L" transform="matrix(1 0 0 1 1959.45 1556)">
   <path d="M 41.2109 13.3789 L 120.02 13.3789 C 140.527 13.3789 156.348 -2.09961 156.348 -21.9727 C 156.348 -42.1387 139.99 -57.3242 118.457 -57.1777 C 110.205 -73.6816 95.5566 -82.8125 77.4414 -82.8125 C 53.8574 -82.8125 34.2285 -64.6973 31.9336 -40.918 C 19.5312 -37.3535 11.2793 -27.002 11.2793 -14.1113 C 11.2793 2.09961 23.5352 13.3789 41.2109 13.3789 Z"/>
  </g>
  <g id="Medium-L" transform="matrix(1 0 0 1 1663.43 1556)">
   <path d="M 40.5762 12.7441 L 119.238 12.7441 C 139.404 12.7441 154.98 -2.44141 154.98 -21.9727 C 154.98 -41.7969 138.818 -56.6406 117.432 -56.4453 C 109.229 -72.998 94.5801 -82.2266 76.709 -82.2266 C 53.418 -82.2266 33.8867 -64.0137 31.8359 -40.3809 C 19.4336 -36.8652 11.2793 -26.6113 11.2793 -14.0137 C 11.2793 1.80664 23.1934 12.7441 40.5762 12.7441 Z"/>
  </g>
  <g id="Regular-L" transform="matrix(1 0 0 1 1367.62 1556)">
   <path d="M 39.6973 11.9141 L 118.164 11.9141 C 137.939 11.9141 153.174 -2.92969 153.174 -22.0215 C 153.174 -41.3086 137.256 -55.7129 116.113 -55.5664 C 107.959 -72.1191 93.3594 -81.4453 75.7812 -81.4453 C 52.7832 -81.4453 33.4473 -63.1348 31.6895 -39.5996 C 19.2871 -36.2793 11.2793 -26.123 11.2793 -13.8672 C 11.2793 1.41602 22.8027 11.9141 39.6973 11.9141 Z"/>
  </g>
  <g id="Light-L" transform="matrix(1 0 0 1 1071.35 1556)">
   <path d="M 38.9648 10.8398 L 117.822 10.8398 C 137.207 10.8398 152.295 -3.75977 152.295 -22.4121 C 152.295 -41.2109 136.523 -55.3711 115.723 -55.1758 C 107.52 -72.168 93.1641 -81.4453 75.4395 -81.4453 C 52.832 -81.4453 33.7891 -63.1348 32.0312 -39.5996 C 19.4336 -36.3281 11.2793 -26.3184 11.2793 -14.209 C 11.2793 0.585938 22.5098 10.8398 38.9648 10.8398 Z"/>
  </g>
  <g id="Thin-L" transform="matrix(1 0 0 1 775.245 1556)">
   <path d="M 37.9883 9.32617 L 117.334 9.32617 C 136.279 9.32617 151.074 -4.83398 151.074 -22.9004 C 151.074 -41.1621 135.596 -54.8828 115.234 -54.6875 C 106.885 -72.2656 92.9199 -81.4453 74.9512 -81.4453 C 52.832 -81.4453 34.2285 -63.1836 32.5195 -39.5996 C 19.5801 -36.377 11.2793 -26.6113 11.2793 -14.6973 C 11.2793 -0.537109 22.168 9.32617 37.9883 9.32617 Z"/>
  </g>
  <g id="Ultralight-L" transform="matrix(1 0 0 1 478.852 1556)">
   <path d="M 37.5 8.59375 L 117.09 8.59375 C 135.791 8.59375 150.439 -5.37109 150.439 -23.1934 C 150.439 -41.1133 135.156 -54.5898 114.99 -54.4434 C 106.592 -72.2656 92.7734 -81.4453 74.707 -81.4453 C 52.8809 -81.4453 34.4727 -63.1836 32.8125 -39.5996 C 19.6777 -36.4258 11.2793 -26.709 11.2793 -14.9414 C 11.2793 -1.12305 21.9727 8.59375 37.5 8.59375 Z"/>
  </g>
  <g id="Black-M" transform="matrix(1 0 0 1 2864.53 1126)">
   <path d="M 35.5469 5.76172 L 97.7051 5.76172 C 115.381 5.76172 129.004 -7.66602 129.004 -25.0977 C 129.004 -42.8711 115.43 -56.4453 97.8516 -56.2988 C 91.1621 -69.1895 79.6875 -75.8301 64.1602 -75.8301 C 44.5801 -75.8301 28.7109 -62.3047 25.6836 -43.1641 C 15.8691 -39.6484 8.74023 -31.25 8.74023 -19.7754 C 8.74023 -5.0293 20.0195 5.76172 35.5469 5.76172 Z"/>
  </g>
  <g id="Heavy-M" transform="matrix(1 0 0 1 2568.96 1126)">
   <path d="M 34.5215 4.83398 L 96.2891 4.83398 C 113.477 4.83398 126.709 -8.1543 126.709 -25.0488 C 126.709 -42.1875 113.379 -55.2246 96.0449 -55.127 C 89.4531 -67.9199 77.9785 -74.707 62.9395 -74.707 C 43.75 -74.707 27.9785 -61.0352 25.3418 -42.0898 C 15.625 -38.8184 8.74023 -30.4688 8.74023 -19.4824 C 8.74023 -5.32227 19.4824 4.83398 34.5215 4.83398 Z"/>
  </g>
  <g id="Bold-M" transform="matrix(1 0 0 1 2273.55 1126)">
   <path d="M 33.3984 3.85742 L 94.7266 3.85742 C 111.328 3.85742 124.121 -8.69141 124.121 -24.9512 C 124.121 -41.4062 111.084 -53.8574 93.9941 -53.7598 C 87.5488 -66.4551 76.0742 -73.4375 61.5234 -73.4375 C 42.7734 -73.4375 27.2461 -59.5703 25 -40.8691 C 15.3809 -37.8418 8.74023 -29.6387 8.74023 -19.1406 C 8.74023 -5.66406 18.8965 3.85742 33.3984 3.85742 Z"/>
  </g>
  <g id="Semibold-M" transform="matrix(1 0 0 1 1977.71 1126)">
   <path d="M 32.5684 3.17383 L 93.6523 3.17383 C 109.863 3.17383 122.363 -9.08203 122.363 -24.8535 C 122.363 -40.8691 109.521 -52.9297 92.627 -52.832 C 86.2305 -65.4785 74.7559 -72.5586 60.5957 -72.5586 C 42.0898 -72.5586 26.709 -58.5938 24.7559 -40.0879 C 15.1855 -37.207 8.74023 -29.0527 8.74023 -18.8965 C 8.74023 -5.9082 18.5059 3.17383 32.5684 3.17383 Z"/>
  </g>
  <g id="Medium-M" transform="matrix(1 0 0 1 1681.69 1126)">
   <path d="M 31.9824 2.63672 L 92.8711 2.63672 C 108.74 2.63672 120.996 -9.375 120.996 -24.8047 C 120.996 -40.4785 108.301 -52.2461 91.5527 -52.0996 C 85.2539 -64.7461 73.7793 -71.875 59.8633 -71.875 C 41.6016 -71.875 26.2695 -57.8125 24.5605 -39.4531 C 15.0391 -36.6699 8.74023 -28.6133 8.74023 -18.7012 C 8.74023 -6.10352 18.2129 2.63672 31.9824 2.63672 Z"/>
  </g>
  <g id="Regular-M" transform="matrix(1 0 0 1 1385.86 1126)">
   <path d="M 31.2012 1.95312 L 91.7969 1.95312 C 107.324 1.95312 119.238 -9.76562 119.238 -24.7559 C 119.238 -39.9414 106.738 -51.3184 90.1855 -51.1719 C 83.9355 -63.7695 72.4609 -71.0449 58.9355 -71.0449 C 40.918 -71.0449 25.7324 -56.8359 24.3652 -38.623 C 14.8926 -36.0352 8.74023 -28.0762 8.74023 -18.457 C 8.74023 -6.34766 17.8223 1.95312 31.2012 1.95312 Z"/>
  </g>
  <g id="Light-M" transform="matrix(1 0 0 1 1089.56 1126)">
   <path d="M 30.5176 0.927734 L 91.4551 0.927734 C 106.641 0.927734 118.408 -10.4492 118.408 -25.0977 C 118.408 -39.8926 106.152 -50.9766 89.8438 -50.8789 C 83.5449 -63.8184 72.3145 -71.0449 58.6426 -71.0449 C 40.918 -71.0449 26.0254 -56.8359 24.6582 -38.623 C 14.9902 -36.084 8.74023 -28.2227 8.74023 -18.7988 C 8.74023 -7.08008 17.5781 0.927734 30.5176 0.927734 Z"/>
  </g>
  <g id="Thin-M" transform="matrix(1 0 0 1 793.385 1126)">
   <path d="M 29.6387 -0.341797 L 91.0156 -0.341797 C 105.811 -0.341797 117.334 -11.4258 117.334 -25.5859 C 117.334 -39.8438 105.322 -50.5371 89.4043 -50.4395 C 82.959 -63.916 72.0703 -71.0449 58.2031 -71.0449 C 40.9668 -71.0449 26.4648 -56.8848 25.0977 -38.623 C 15.1367 -36.1328 8.74023 -28.4668 8.74023 -19.2383 C 8.74023 -8.10547 17.2363 -0.341797 29.6387 -0.341797 Z"/>
  </g>
  <g id="Ultralight-M" transform="matrix(1 0 0 1 496.967 1126)">
   <path d="M 29.1992 -1.02539 L 90.8203 -1.02539 C 105.371 -1.02539 116.748 -11.9141 116.748 -25.8301 C 116.748 -39.7949 104.883 -50.3418 89.1602 -50.1953 C 82.7148 -63.916 71.9238 -71.0449 57.959 -71.0449 C 40.9668 -71.0449 26.6602 -56.8848 25.3418 -38.623 C 15.2344 -36.1328 8.74023 -28.6133 8.74023 -19.4336 C 8.74023 -8.64258 17.0898 -1.02539 29.1992 -1.02539 Z"/>
  </g>
  <g id="Black-S" transform="matrix(1 0 0 1 2879.54 696)">
   <path d="M 27.7832 -3.17383 L 76.416 -3.17383 C 90.2344 -3.17383 100.879 -13.6719 100.879 -27.2949 C 100.879 -41.1621 90.2832 -51.7578 76.5137 -51.6602 C 71.2891 -61.7188 62.3047 -66.9434 50.1465 -66.9434 C 34.8633 -66.9434 22.4121 -56.3477 20.0684 -41.3574 C 12.4023 -38.623 6.83594 -32.0312 6.83594 -23.0957 C 6.83594 -11.5723 15.625 -3.17383 27.7832 -3.17383 Z"/>
  </g>
  <g id="Heavy-S" transform="matrix(1 0 0 1 2583.66 696)">
   <path d="M 27.0508 -3.75977 L 75.3906 -3.75977 C 88.8672 -3.75977 99.2188 -13.9648 99.2188 -27.1973 C 99.2188 -40.625 88.7695 -50.8789 75.1465 -50.7812 C 70.0195 -60.7422 61.0352 -66.0645 49.2676 -66.0645 C 34.1797 -66.0645 21.8262 -55.3711 19.7754 -40.5273 C 12.207 -37.9883 6.83594 -31.4453 6.83594 -22.8027 C 6.83594 -11.7188 15.2344 -3.75977 27.0508 -3.75977 Z"/>
  </g>
  <g id="Bold-S" transform="matrix(1 0 0 1 2287.88 696)">
   <path d="M 26.2695 -4.39453 L 74.2188 -4.39453 C 87.3047 -4.39453 97.3633 -14.3066 97.3633 -27.0996 C 97.3633 -40.0391 87.1094 -49.8535 73.6328 -49.7559 C 68.6035 -59.668 59.5703 -65.1367 48.2422 -65.1367 C 33.4473 -65.1367 21.1914 -54.248 19.4824 -39.6484 C 12.0117 -37.2559 6.83594 -30.7617 6.83594 -22.5098 C 6.83594 -11.9141 14.8438 -4.39453 26.2695 -4.39453 Z"/>
  </g>
  <g id="Semibold-S" transform="matrix(1 0 0 1 1991.83 696)">
   <path d="M 25.7324 -4.83398 L 73.4375 -4.83398 C 86.2305 -4.83398 96.0449 -14.502 96.0449 -27.002 C 96.0449 -39.6484 85.9375 -49.1699 72.6074 -49.0723 C 67.627 -58.8867 58.5938 -64.4531 47.5586 -64.4531 C 32.9102 -64.4531 20.8008 -53.4668 19.2871 -39.0137 C 11.8652 -36.7188 6.83594 -30.3223 6.83594 -22.3145 C 6.83594 -12.0117 14.5508 -4.83398 25.7324 -4.83398 Z"/>
  </g>
  <g id="Medium-S" transform="matrix(1 0 0 1 1695.6 696)">
   <path d="M 25.293 -5.17578 L 72.8516 -5.17578 C 85.4492 -5.17578 95.0684 -14.6973 95.0684 -26.9531 C 95.0684 -39.3555 85.0586 -48.6816 71.8262 -48.584 C 66.8945 -58.3008 57.8613 -63.9648 47.0215 -63.9648 C 32.5195 -63.9648 20.459 -52.9297 19.0918 -38.5254 C 11.7188 -36.3281 6.83594 -29.9805 6.83594 -22.1191 C 6.83594 -12.1094 14.3555 -5.17578 25.293 -5.17578 Z"/>
  </g>
  <g id="Regular-S" transform="matrix(1 0 0 1 1399.53 696)">
   <path d="M 24.7559 -5.61523 L 72.0703 -5.61523 C 84.375 -5.61523 93.7988 -14.8926 93.7988 -26.8555 C 93.7988 -38.9648 83.9355 -47.998 70.8008 -47.9004 C 65.9668 -57.5684 56.8359 -63.2812 46.3379 -63.2812 C 32.0312 -63.2812 20.0195 -52.1484 18.8965 -37.8906 C 11.5723 -35.8398 6.83594 -29.541 6.83594 -21.9238 C 6.83594 -12.207 14.0625 -5.61523 24.7559 -5.61523 Z"/>
  </g>
  <g id="Light-S" transform="matrix(1 0 0 1 1103.18 696)">
   <path d="M 24.1699 -6.49414 L 71.7773 -6.49414 C 83.7891 -6.49414 93.0664 -15.5762 93.0664 -27.1484 C 93.0664 -38.916 83.3984 -47.7051 70.5078 -47.6074 C 65.5762 -57.6172 56.6895 -63.2812 46.0449 -63.2812 C 32.0312 -63.2812 20.2637 -52.1484 19.1895 -37.8906 C 11.6699 -35.8887 6.83594 -29.6875 6.83594 -22.2168 C 6.83594 -12.8906 13.8672 -6.49414 24.1699 -6.49414 Z"/>
  </g>
  <g id="Thin-S" transform="matrix(1 0 0 1 806.935 696)">
   <path d="M 23.3887 -7.66602 L 71.3867 -7.66602 C 83.0566 -7.66602 92.1387 -16.4062 92.1387 -27.5879 C 92.1387 -38.8672 82.666 -47.3145 70.1172 -47.2168 C 65.0879 -57.666 56.4941 -63.2812 45.6543 -63.2812 C 32.0801 -63.2812 20.6055 -52.1973 19.5801 -37.8906 C 11.8164 -35.8887 6.83594 -29.8828 6.83594 -22.6074 C 6.83594 -13.7695 13.5742 -7.66602 23.3887 -7.66602 Z"/>
  </g>
  <g id="Ultralight-S" transform="matrix(1 0 0 1 510.492 696)">
   <path d="M 22.998 -8.25195 L 71.1914 -8.25195 C 82.666 -8.25195 91.6016 -16.8457 91.6016 -27.7832 C 91.6016 -38.8184 82.2754 -47.1191 69.9219 -47.0215 C 64.8438 -57.7148 56.3965 -63.2812 45.459 -63.2812 C 32.0801 -63.2812 20.8008 -52.1973 19.7754 -37.8906 C 11.9141 -35.9375 6.83594 -29.9805 6.83594 -22.8027 C 6.83594 -14.2578 13.4277 -8.25195 22.998 -8.25195 Z"/>
  </g>
 </g>
</svg>
